# xmcd
#
# Track frame offsets: 
#        150
#        11776
#        23626
#        34534
#        46073
#        55250
#        70113
#        80463
#        91607
#        104094
#
# Disc length: 1581 seconds
#
# Revision: 1
# Processed by: cddbd v1.5.2PL0 Copyright (c) Steve Scherf et al.
# Submitted via: ExactAudioCopyFreeDBPlugin 1.0
#
DISCID=70062b0a
DTITLE=Various Artist - Country Classics 1968
DYEAR=1999
DGENRE=Country
TTITLE0=Jack Greene - Until My Dreams Come True
TTITLE1=David Houston - Already It's Heaven
TTITLE2=Bobby Lewis - From Heaven To Heartache
TTITLE3=Warner Mack - I'm Gonna Move On
TTITLE4=Del Reeves - Good Time Charlies's
TTITLE5=Jeannie C. Riley - Harper Valley P.T.A.
TTITLE6=Nat Stuckey - Plastic Saddle
TTITLE7=Hank Thompson - Smokey The Bar
TTITLE8=Porter Wagoner - The Carroll County Accident
TTITLE9=Johnny Darrell - With Pen In Hand
EXTD=
EXTT0=
EXTT1=
EXTT2=
EXTT3=
EXTT4=
EXTT5=
EXTT6=
EXTT7=
EXTT8=
EXTT9=
PLAYORDER=
